P2
64 64
255
216 222 228 232 237 240 244 246 246 249 251 253 254 254 255 255 255 255 255 255 255 255 255 255 255 255 255 255 255 255 255 255 255 255 255 255 255 255 255 255 255 255 255 255 255 255 255 255 255 255 255 255 255 255 255 255 255 255 255 255 255 255 253 252 
219 225 231 235 240 243 245 248 248 249 251 253 254 255 255 255 255 255 255 255 255 255 255 255 255 255 255 255 255 255 255 255 255 255 255 255 255 255 255 255 255 255 255 255 255 255 255 255 255 255 255 255 255 255 255 255 255 255 255 255 255 255 255 254 
217 224 230 235 239 242 245 247 248 249 251 252 253 254 255 255 255 255 255 255 255 255 255 255 255 255 255 255 255 255 255 255 255 255 255 255 255 255 255 255 255 255 255 255 255 255 255 255 255 255 255 255 255 255 255 255 255 255 255 255 255 255 255 255 
216 223 230 233 238 242 245 247 248 249 251 252 253 254 255 255 255 255 255 255 255 255 255 255 255 255 255 255 255 255 255 255 255 255 255 255 255 255 255 255 255 255 255 255 255 255 255 255 255 255 255 255 255 255 255 255 255 255 255 255 255 255 255 255 
218 224 229 233 238 242 246 247 248 249 250 252 254 254 254 254 255 255 255 255 255 255 255 255 255 255 255 255 255 255 255 255 255 255 255 255 255 255 255 255 255 255 255 255 255 255 255 255 255 255 255 255 255 255 255 255 255 255 255 255 255 255 255 255 
216 221 226 230 234 240 243 246 247 249 250 252 252 253 253 254 255 255 255 255 255 255 255 255 255 255 255 255 255 255 255 255 255 255 255 255 255 255 255 255 255 255 255 255 255 255 255 255 255 255 255 255 255 255 255 255 255 255 255 255 255 255 255 255 
216 221 225 230 233 238 242 244 247 248 250 251 252 252 253 254 254 255 255 255 255 255 255 255 255 255 255 255 255 255 255 255 255 255 255 255 255 255 255 255 255 255 255 255 255 255 255 255 255 255 255 255 255 255 255 255 255 255 255 255 255 255 255 255 
213 218 222 227 231 235 239 242 245 248 249 250 251 252 253 253 254 254 255 255 255 255 255 255 255 255 255 255 255 255 255 255 255 255 255 255 255 255 255 255 255 255 255 255 255 255 255 255 255 255 255 255 255 255 255 255 255 255 255 255 255 255 255 255 
209 214 219 225 230 234 236 240 243 246 247 249 250 251 252 252 253 253 254 254 254 254 255 255 255 255 255 255 255 255 255 255 255 255 255 255 255 255 255 255 255 255 255 254 253 255 255 255 255 255 255 255 255 255 255 255 255 255 255 255 255 255 255 255 
206 210 216 223 227 231 234 238 241 244 246 248 250 250 251 251 252 253 253 253 253 254 254 254 255 255 255 255 255 255 255 255 255 255 255 255 255 255 255 255 255 255 254 242 242 254 255 255 255 255 255 255 255 255 255 255 255 255 255 255 255 255 255 255 
203 207 213 219 225 229 233 236 239 242 244 246 247 248 249 250 251 251 252 252 252 253 253 254 254 255 255 255 255 255 255 255 255 255 255 255 255 255 255 255 255 255 254 154 199 254 255 255 255 255 255 255 255 255 255 255 255 255 255 255 255 255 255 255 
201 204 210 215 222 226 230 233 237 239 242 244 245 246 247 248 249 250 251 252 252 252 252 253 253 253 253 254 255 255 255 255 255 255 255 255 255 255 255 255 255 255 253 164 219 254 255 255 255 255 255 255 255 255 255 255 255 255 255 255 255 255 255 255 
198 202 207 213 219 223 228 231 234 236 239 240 240 243 245 246 247 247 249 250 250 251 251 251 252 253 253 253 253 254 254 254 254 255 255 255 255 255 255 255 255 255 236 147 191 254 255 255 255 255 255 255 255 255 255 255 255 255 255 255 255 255 255 255 
177 180 183 194 199 202 205 216 214 219 222 222 220 228 219 237 220 224 229 226 230 240 240 231 233 234 232 237 236 234 239 241 244 244 245 246 246 247 249 249 251 251 204 144 237 252 254 254 253 253 254 253 254 254 254 254 255 255 255 255 255 255 255 255 
121 121 113 115 110 130 161 161 134 130 146 134 126 143 126 140 135 128 134 129 139 141 169 157 150 179 170 174 168 179 183 188 192 187 181 188 190 191 198 189 183 194 163 140 226 222 220 228 226 233 238 242 242 243 247 249 250 251 252 252 252 253 253 253 
84 88 86 84 88 101 124 106 98 109 111 105 107 105 106 98 107 94 99 111 113 117 105 97 99 112 128 118 128 146 140 152 134 138 133 138 180 168 148 137 138 143 139 158 250 187 175 173 161 177 181 186 191 195 203 203 207 214 218 218 227 231 235 230 
68 67 76 84 75 84 104 110 85 88 85 84 99 96 101 92 81 100 94 93 93 96 94 93 101 89 91 106 120 128 131 117 123 148 122 100 102 110 164 177 142 145 127 164 251 157 148 141 130 130 140 137 141 139 147 151 154 159 162 169 166 185 192 185 
55 55 58 69 72 75 95 125 106 76 87 98 81 98 115 124 104 119 142 140 124 120 109 133 85 105 93 119 106 86 85 68 152 200 140 80 75 90 128 111 97 102 119 170 244 99 109 92 96 111 126 122 120 121 125 128 134 126 133 132 134 136 136 133 
61 69 70 91 83 94 75 113 116 85 86 83 109 112 99 125 88 91 116 177 184 171 176 134 134 153 177 145 131 115 91 103 154 121 110 104 119 76 136 127 104 85 118 173 234 99 84 73 87 98 121 159 176 173 156 130 116 109 122 138 141 139 146 138 
67 72 67 69 100 96 84 99 133 81 63 74 61 93 72 93 102 75 108 135 101 77 105 76 83 75 79 79 108 146 73 127 106 72 51 61 100 58 91 156 129 60 107 180 226 116 121 96 72 74 95 93 106 137 132 102 123 100 100 108 111 108 129 135 
45 53 48 68 62 92 108 164 158 141 137 113 120 86 83 86 95 81 95 92 95 103 129 126 138 97 100 94 86 65 35 65 69 72 99 113 114 89 47 60 60 82 124 173 155 135 118 148 153 140 112 95 108 165 100 90 129 140 128 97 111 59 68 99 
43 48 71 75 130 143 125 154 137 140 157 135 123 101 85 90 151 118 111 117 141 151 142 138 133 146 157 136 117 137 136 93 77 111 121 85 93 96 99 94 126 134 124 85 87 102 113 123 169 191 204 134 153 131 137 131 103 119 115 103 117 87 86 95 
68 136 165 132 103 117 137 155 180 191 189 159 132 113 93 136 150 134 155 159 138 162 136 164 181 185 179 158 74 109 169 176 101 83 34 63 47 54 70 108 120 120 106 84 92 98 97 109 182 148 177 156 146 145 143 125 104 126 120 113 106 50 43 44 
123 156 158 144 138 124 142 141 160 136 133 153 142 148 153 136 127 153 150 156 188 162 119 141 156 143 169 133 68 109 153 125 105 119 96 93 69 91 77 85 44 60 63 63 86 78 86 122 128 121 149 156 161 172 160 84 54 72 104 84 90 82 45 44 
140 134 134 121 166 174 180 160 158 175 193 175 175 178 103 96 70 195 202 206 174 135 90 136 203 163 122 142 78 108 108 91 110 120 130 113 103 77 74 78 39 68 60 34 46 101 88 99 83 98 193 177 144 122 106 90 52 48 63 63 49 27 41 83 
95 141 148 134 121 160 149 178 156 226 173 133 177 135 72 132 111 141 161 164 165 161 130 134 138 137 150 109 140 129 99 91 117 114 135 139 148 126 63 57 73 70 76 67 74 66 62 46 53 99 109 114 110 116 130 136 102 79 68 62 58 39 30 32 
131 166 168 170 159 191 126 167 135 166 164 188 131 86 38 81 134 92 141 140 162 158 112 130 171 176 130 123 86 111 91 93 169 182 152 138 152 172 106 113 124 116 84 69 77 99 58 25 47 87 98 106 108 105 107 107 109 147 132 138 152 86 69 64 
118 185 125 92 103 158 137 165 125 120 122 165 178 172 106 116 134 116 113 108 140 155 88 138 109 99 79 111 57 59 63 73 135 126 126 114 114 136 109 121 110 123 151 101 48 36 35 51 62 88 74 84 87 99 99 102 100 134 125 127 162 105 98 90 
121 150 154 152 154 155 153 167 161 151 162 194 231 212 158 181 154 157 148 69 96 124 126 124 127 104 72 81 89 78 71 69 78 98 117 117 112 129 73 83 131 148 150 135 105 97 106 79 79 124 125 90 79 74 90 83 100 126 123 100 95 128 115 120 
145 147 150 150 153 152 149 146 166 184 210 152 165 99 94 143 142 126 121 70 93 140 152 115 102 107 106 86 56 58 76 80 54 56 78 121 120 59 39 57 154 177 133 84 73 72 77 65 84 83 82 90 100 92 102 77 86 137 87 94 96 123 148 104 
144 140 147 154 174 168 165 123 191 109 230 128 163 125 109 73 153 156 162 108 103 136 140 131 126 142 97 72 35 69 55 55 18 52 92 120 144 105 48 56 112 94 73 36 59 54 80 65 68 76 98 81 104 151 143 129 94 105 82 89 87 157 146 78 
154 141 141 104 115 126 105 139 113 67 131 167 165 144 71 74 92 163 174 170 181 140 169 168 162 158 149 132 140 152 127 45 18 55 76 72 83 95 58 43 56 75 113 26 99 36 53 51 52 104 115 110 100 138 135 142 151 78 71 85 86 140 91 50 
88 106 113 128 162 158 102 74 82 52 111 164 135 91 88 73 96 157 142 139 150 176 172 164 152 119 136 147 144 141 142 128 54 39 43 28 41 67 72 27 22 46 60 30 42 26 16 36 106 108 107 105 101 128 138 135 141 164 68 67 71 48 42 102 
160 155 151 145 129 128 51 56 66 61 158 166 131 103 86 94 133 141 140 138 142 141 150 156 163 122 146 140 125 56 42 105 74 19 6 24 29 44 64 60 42 31 33 37 16 8 3 38 66 84 101 108 99 117 137 134 132 149 87 49 56 90 110 112 
147 148 150 152 158 154 67 32 43 19 109 126 65 41 70 103 148 143 133 155 182 209 174 150 157 178 149 84 24 32 38 57 66 34 4 31 22 20 29 38 56 36 15 40 46 25 7 41 71 68 65 79 96 108 135 144 175 173 64 83 55 81 123 120 
152 152 150 132 130 131 33 44 32 30 57 37 128 126 36 114 159 195 202 174 236 219 182 152 153 165 184 23 7 20 31 50 64 20 28 14 4 2 22 46 37 42 56 57 65 97 83 68 54 74 72 61 69 88 164 170 194 173 58 39 47 63 56 45 
151 137 81 80 77 68 59 26 5 17 26 111 153 83 41 105 214 229 96 123 193 206 187 153 153 162 168 20 11 17 17 38 56 43 20 4 19 30 39 57 35 25 44 71 116 113 116 144 102 41 64 95 100 123 181 205 128 123 37 25 44 52 57 15 
151 151 148 150 132 112 73 53 59 22 69 147 150 128 67 81 199 124 74 141 168 189 176 162 127 206 184 5 2 4 7 27 40 50 43 51 8 16 31 49 27 37 55 69 108 111 116 148 136 104 99 115 120 170 148 147 142 72 41 21 45 41 58 33 
142 138 134 101 116 167 88 66 29 40 119 151 155 148 138 72 181 66 105 143 158 174 188 185 170 180 185 2 0 3 6 15 41 57 100 74 59 11 13 31 22 12 38 55 103 107 105 149 142 124 94 83 132 140 141 100 73 57 23 18 35 47 51 19 
129 121 110 56 60 123 98 59 36 92 134 150 152 152 149 121 81 79 120 141 152 162 176 200 217 123 126 27 9 14 29 51 46 47 60 64 50 30 14 11 11 29 28 50 61 106 101 142 141 140 106 95 113 157 146 126 54 10 5 18 38 27 24 35 
111 63 69 51 31 57 59 52 60 119 140 145 149 154 151 128 57 109 138 145 155 161 149 206 162 138 142 67 6 38 40 50 62 53 52 47 42 28 26 17 15 16 34 30 46 47 90 134 174 144 45 75 68 69 69 77 46 39 19 16 27 24 31 47 
93 63 39 45 36 43 50 44 25 101 114 135 138 88 178 187 126 129 142 152 157 176 194 217 153 142 192 69 23 16 21 18 42 57 43 36 26 36 56 60 5 5 30 21 28 32 41 184 113 61 71 64 71 23 8 28 23 42 26 11 11 42 51 67 
94 65 44 21 20 9 35 41 9 73 113 191 116 75 205 202 84 114 126 169 211 245 211 208 201 108 174 134 46 15 6 24 41 75 50 44 28 18 16 10 5 29 20 28 25 78 88 156 156 137 106 98 35 9 10 6 17 32 26 18 55 57 61 133 
123 99 71 28 3 5 38 39 9 79 140 112 91 62 207 160 105 118 168 216 235 232 199 187 145 81 76 123 61 49 68 50 56 67 57 48 18 26 8 12 2 27 38 32 81 92 103 136 69 79 83 49 52 12 1 8 16 20 23 55 58 60 68 112 
112 80 66 44 23 29 51 27 3 39 119 102 85 54 185 176 99 111 126 179 227 189 216 195 153 80 62 17 15 45 73 72 75 64 58 34 10 11 6 6 36 23 18 42 123 146 144 60 23 61 58 68 99 36 4 2 2 31 58 59 53 35 28 81 
85 68 62 62 44 10 27 16 3 25 83 59 86 42 175 189 99 93 132 141 212 177 232 227 131 52 72 22 18 38 55 79 110 111 74 44 16 13 8 9 58 96 73 113 153 142 112 29 9 16 49 61 81 79 5 2 26 67 60 60 59 62 57 86 
92 121 68 49 18 9 40 23 1 30 74 45 150 129 161 175 115 114 125 140 215 216 245 223 114 44 119 34 64 71 98 100 119 116 131 62 45 23 12 37 66 107 134 116 113 133 30 20 4 9 29 61 71 42 17 29 34 36 68 76 76 69 65 71 
59 44 51 71 53 58 62 50 7 59 92 145 151 153 175 137 100 179 120 191 223 236 240 183 104 140 96 107 141 101 108 82 130 130 125 53 46 53 31 35 52 80 102 90 63 69 45 15 9 15 14 43 49 22 51 53 65 112 124 86 79 72 71 67 
45 53 69 35 46 44 59 33 18 60 133 162 163 161 209 163 83 172 97 180 217 234 212 112 104 90 61 81 79 122 119 98 129 132 120 61 35 11 39 70 65 54 48 51 37 52 75 26 19 7 28 33 18 37 57 64 127 128 139 170 112 71 85 73 
73 68 81 37 18 13 17 5 18 84 130 151 165 162 218 168 88 202 98 126 152 142 60 57 96 53 38 77 92 107 139 151 130 136 102 51 40 63 73 63 60 43 12 39 29 43 65 48 5 26 11 11 18 64 76 117 134 122 129 132 137 132 117 76 
69 72 79 81 55 33 6 20 66 65 64 91 150 206 197 115 176 170 107 92 105 117 78 51 35 55 83 97 95 111 138 152 137 133 68 100 105 71 61 61 32 10 6 26 27 43 74 48 20 9 10 21 54 82 85 107 126 129 139 136 138 136 153 37 
75 52 27 30 49 53 28 35 42 64 42 72 189 201 101 73 70 75 84 90 104 113 37 76 74 61 111 98 96 79 109 154 124 92 76 71 65 68 64 23 13 5 8 26 30 21 58 56 6 36 45 53 33 37 80 90 127 139 141 144 148 134 161 133 
12 15 23 9 12 5 15 40 39 58 66 73 66 111 28 43 44 42 71 61 99 85 71 73 54 40 28 60 88 69 141 148 91 75 67 65 68 37 19 12 20 8 4 25 21 42 31 33 39 40 55 52 48 36 26 78 135 138 139 149 149 145 116 127 
18 3 1 0 1 10 35 22 42 57 66 66 54 40 42 24 15 29 67 88 84 108 87 87 110 93 30 50 108 90 155 147 124 78 70 58 17 9 8 5 20 19 2 14 12 21 34 35 70 78 37 49 53 51 47 45 137 142 148 142 142 119 107 107 
26 1 1 0 3 7 37 21 42 62 73 52 38 33 31 13 5 36 48 102 92 116 118 137 125 42 84 75 86 148 146 142 138 107 78 29 7 10 9 26 11 2 1 4 3 13 46 55 61 111 117 35 74 80 81 65 145 145 145 140 129 108 105 106 
38 18 22 26 28 32 23 45 73 58 46 49 64 42 13 7 13 51 88 81 83 102 78 116 135 76 57 59 143 148 141 138 140 147 142 114 68 45 28 29 15 15 0 1 20 48 58 58 99 198 177 134 38 74 76 66 131 135 135 132 111 105 101 104 
37 25 28 28 28 48 63 71 90 93 56 54 45 11 5 17 42 112 73 75 98 88 65 83 65 61 81 147 148 140 139 137 137 143 134 127 110 79 95 70 44 29 18 30 49 55 60 104 185 222 201 179 141 38 72 75 118 139 132 116 109 102 101 96 
78 40 38 37 59 73 74 73 73 87 121 73 25 12 19 70 76 45 50 63 124 99 61 60 72 106 155 145 141 138 135 135 142 106 74 93 45 18 50 27 18 20 38 46 57 56 113 202 200 202 197 197 177 151 37 74 94 133 118 108 110 100 98 93 
91 94 87 49 68 48 70 69 86 122 127 112 75 78 90 68 40 39 54 53 106 71 71 91 137 154 144 140 139 135 133 129 92 72 57 71 91 78 58 23 25 39 49 55 59 127 204 200 197 196 199 198 196 169 160 41 81 124 111 108 104 102 78 33 
33 36 44 37 60 43 72 73 98 118 125 133 139 146 147 124 77 57 58 63 95 114 134 148 142 141 139 135 130 117 106 71 67 51 58 92 81 62 18 28 47 44 55 56 137 204 201 196 196 195 196 197 189 158 150 159 46 96 111 108 102 95 31 30 
23 24 21 21 24 49 75 72 90 114 119 126 131 136 139 137 141 147 147 146 139 137 139 138 127 140 138 112 105 102 77 60 73 34 75 79 54 26 18 49 51 64 78 108 203 203 198 195 196 197 196 192 165 144 138 137 144 60 105 104 98 49 21 27 
24 36 46 22 45 42 77 82 109 129 127 127 129 134 134 134 134 135 134 134 134 134 134 136 135 135 116 102 97 85 66 57 28 31 52 54 23 29 40 43 80 87 82 77 156 204 196 198 197 199 195 162 150 142 142 139 134 171 81 102 76 17 22 24 
8 6 36 22 39 45 62 68 85 138 132 130 134 140 139 139 138 137 134 133 132 135 133 133 132 129 127 123 99 69 53 54 20 28 30 18 29 51 52 47 44 81 79 80 74 176 201 199 199 199 173 157 143 137 140 141 135 140 144 100 35 24 27 25 
0 9 20 35 42 44 54 72 82 125 141 126 133 142 141 138 136 133 133 133 134 133 135 132 131 130 125 109 66 54 47 56 52 12 23 22 32 42 47 40 27 62 75 79 82 90 188 199 198 174 150 145 141 140 133 150 133 132 63 124 74 32 35 10 
